<svg xmlns="http://www.w3.org/2000/svg" fill="#fff" width="45.06" height="45.06" viewBox="0 0 45.06 45.06"><g id="Calque_2" data-name="Calque 2"><g id="sun"><path d="M22.53,11.79a10.72,10.72,0,1,1-7.6,3.14A10.72,10.72,0,0,1,22.53,11.79Zm5.2,5.54a7.36,7.36,0,1,0,2.15,5.2A7.33,7.33,0,0,0,27.73,17.33Z"/><path d="M24.23,6.34a1.7,1.7,0,0,1-3.4,0V1.7a1.7,1.7,0,0,1,3.4,0Z"/><path d="M12.28,9.88a1.7,1.7,0,0,1-2.4,2.4L6.6,9A1.7,1.7,0,0,1,9,6.6l3.28,3.28Z"/><path d="M6.34,20.83a1.7,1.7,0,1,1,0,3.4H1.7a1.7,1.7,0,0,1,0-3.4Z"/><path d="M9.88,32.78a1.7,1.7,0,0,1,2.4,0,1.68,1.68,0,0,1,0,2.4L9,38.46a1.68,1.68,0,0,1-2.4,0,1.7,1.7,0,0,1,0-2.4l3.28-3.28Z"/><path d="M20.83,38.72a1.7,1.7,0,0,1,3.4,0v4.65a1.7,1.7,0,0,1-3.4,0Z"/><path d="M32.78,35.18a1.7,1.7,0,0,1,2.4-2.4l3.28,3.28a1.7,1.7,0,1,1-2.4,2.4l-3.28-3.28Z"/><path d="M38.72,24.23a1.7,1.7,0,1,1,0-3.4h4.65a1.7,1.7,0,0,1,0,3.4Z"/><path d="M35.18,12.28a1.68,1.68,0,0,1-2.4,0,1.7,1.7,0,0,1,0-2.4L36.06,6.6a1.7,1.7,0,0,1,2.4,0,1.68,1.68,0,0,1,0,2.4l-3.28,3.28Z"/></g></g></svg>